<?xml version="1.0" encoding="UTF-8" standalone="no"?>
<!-- Created with Inkscape (http://www.inkscape.org/) -->

<svg
   width="35.142307mm"
   height="16.090757mm"
   viewBox="0 0 35.142307 16.090757"
   version="1.1"
   id="svg1"
   xmlns="http://www.w3.org/2000/svg"
   xmlns:svg="http://www.w3.org/2000/svg">
  <defs
     id="defs1" />
  <g
     id="layer1"
     transform="translate(-70.767388,-34.730305)">
    <g
       id="g4"
       style="fill:none">
      <path
         id="path17"
         style="font-size:60.4724px;font-family:Milkshake;-inkscape-font-specification:Milkshake;white-space:pre;fill:none;stroke:#000000;stroke-width:0.1;stroke-dasharray:none"
         d="m 79.095431,34.780306 c -0.498674,0 -1.008269,0.0774 -1.529106,0.232544 -0.509755,0.144063 -0.975195,0.360419 -1.396297,0.648539 -0.410021,0.277041 -0.747933,0.620408 -1.013892,1.030428 -0.104836,0.157254 -0.189186,0.324035 -0.252698,0.500228 a 1.436775,1.436775 0 0 0 -1.436605,-1.41025 1.436775,1.436775 0 0 0 -1.437121,1.437122 1.436775,1.436775 0 0 0 1.437121,1.436605 1.436775,1.436775 0 0 0 1.30018,-0.824756 c -0.0065,0.0787 -0.0098,0.159115 -0.0098,0.240812 0,0.531919 0.121556,1.052424 0.365352,1.562179 0.254878,0.498672 0.526299,0.986447 0.814421,1.462959 0.299205,0.46543 0.570625,0.919961 0.814421,1.363225 0.254878,0.443265 0.382405,0.870005 0.382405,1.280025 0,0.631653 -0.193502,1.13034 -0.58136,1.496033 -0.387857,0.365694 -0.897969,0.548286 -1.529622,0.548286 -0.299204,0 -0.570625,-0.06104 -0.814421,-0.182934 -0.243796,-0.1219 -0.45418,-0.276702 -0.631486,-0.465088 -0.166224,-0.188388 -0.299206,-0.393834 -0.398942,-0.615466 -0.08865,-0.232716 -0.133325,-0.459463 -0.133325,-0.681096 0,-0.243794 0.03325,-0.454696 0.09974,-0.632002 0.06649,-0.188388 0.149863,-0.354618 0.249597,-0.498678 0.110816,-0.144062 0.23289,-0.271588 0.365869,-0.382406 0.13298,-0.121896 0.265963,-0.237998 0.398942,-0.348816 0.121899,-0.08865 0.21021,-0.155144 0.265617,-0.199471 0.05541,-0.05541 0.0832,-0.121901 0.0832,-0.199471 0,-0.18839 -0.09428,-0.28267 -0.28267,-0.28267 -0.26596,0 -0.592962,0.07194 -0.980819,0.216008 -0.387857,0.132977 -0.76447,0.316088 -1.130164,0.548804 -0.354612,0.232716 -0.659278,0.50959 -0.914156,0.830957 -0.254878,0.310284 -0.382405,0.637287 -0.382405,0.980818 0,0.354612 0.09974,0.714862 0.299206,1.080554 0.19947,0.365696 0.487772,0.698151 0.864547,0.997356 0.376776,0.299203 0.842216,0.548289 1.396297,0.747758 0.554082,0.18839 1.18575,0.28267 1.894975,0.28267 0.498673,0 0.985933,-0.08883 1.462443,-0.266134 0.487592,-0.177307 0.919786,-0.420935 1.296562,-0.731221 0.308638,-0.246911 0.568365,-0.528863 0.778764,-0.845944 0.03309,0.141531 0.08064,0.279617 0.142627,0.413929 0.14406,0.28812 0.33211,0.537208 0.564823,0.747758 0.243797,0.21055 0.521188,0.376778 0.831474,0.498677 0.321369,0.121897 0.653826,0.182935 0.997355,0.182935 0.354613,0 0.692525,-0.05558 1.013891,-0.166398 0.32137,-0.121897 0.615124,-0.288125 0.881084,-0.498678 0.232713,0.03325 0.448552,0.05013 0.648022,0.05013 0.487589,0 0.908877,-0.07195 1.263489,-0.216007 0.291355,-0.114778 0.54412,-0.243634 0.758093,-0.38654 -0.09529,0.751086 -0.143144,1.478341 -0.143144,2.181779 0,0.531917 0.08286,0.975022 0.249081,1.329634 0.166224,0.365696 0.371672,0.659451 0.615466,0.881084 0.243799,0.221633 0.509761,0.376435 0.797884,0.465088 0.288122,0.09974 0.554085,0.149861 0.797884,0.149861 0.265957,0 0.504132,-0.06104 0.714685,-0.182934 0.21055,-0.1219 0.387688,-0.282672 0.531751,-0.482141 0.144063,-0.188387 0.255226,-0.39877 0.332796,-0.631486 0.07757,-0.221633 0.116272,-0.43747 0.116272,-0.648023 0,-0.35461 -0.05013,-0.676159 -0.149862,-0.964282 -0.09974,-0.27704 -0.21038,-0.509762 -0.332279,-0.698149 -0.13298,-0.221633 -0.288298,-0.410199 -0.465605,-0.56534 0.421103,0 0.786805,-0.05507 1.097091,-0.165881 0.321366,-0.121899 0.592788,-0.266308 0.814421,-0.432532 0.11675,-0.08339 0.223658,-0.169404 0.32091,-0.258382 0.09223,0.284031 0.256749,0.53082 0.49351,0.740523 0.387856,0.33245 0.897969,0.498678 1.529623,0.498678 0.41002,0 0.786634,-0.105192 1.130163,-0.315743 0.354613,-0.210552 0.659278,-0.443272 0.914156,-0.698149 0.05464,-0.05464 0.108438,-0.110868 0.161231,-0.168465 0.01591,0.05177 0.03452,0.102589 0.05529,0.151929 0.08865,0.21055 0.204756,0.393144 0.348816,0.548287 0.155143,0.155143 0.332281,0.271759 0.531751,0.349332 0.21055,0.08865 0.426906,0.132809 0.648539,0.132809 0.321366,0 0.620577,-0.07194 0.89762,-0.216008 0.277039,-0.14406 0.526125,-0.304835 0.747758,-0.482141 0.254876,-0.199467 0.493052,-0.437645 0.714685,-0.714685 0.05541,0.465427 0.243971,0.820222 0.56534,1.064018 0.321358,0.232713 0.714858,0.348816 1.180288,0.348816 0.41002,0 0.78663,-0.105194 1.13016,-0.315743 0.35461,-0.210553 0.65928,-0.443273 0.91416,-0.698149 0.2992,-0.299203 0.57063,-0.643089 0.81442,-1.030945 0.0222,-0.05541 0.0445,-0.105019 0.0667,-0.149345 0.0221,-0.04433 0.039,-0.08302 0.0501,-0.116272 0.0221,-0.04433 0.0331,-0.08848 0.0331,-0.132808 0,-0.08865 -0.0387,-0.166571 -0.11627,-0.233061 -0.0665,-0.06649 -0.1444,-0.09974 -0.23306,-0.09974 -0.0554,0 -0.10502,0.01689 -0.14935,0.05013 -0.0443,0.02216 -0.0776,0.04399 -0.0997,0.06615 -0.0443,0.04433 -0.0721,0.08354 -0.0832,0.116788 -0.16623,0.27704 -0.34882,0.515215 -0.54829,0.714685 -0.16623,0.188386 -0.36024,0.354618 -0.58187,0.498678 -0.21055,0.144063 -0.4264,0.216008 -0.64803,0.216008 -0.14406,0 -0.26068,-0.04415 -0.34933,-0.132809 -0.0776,-0.08865 -0.11627,-0.199816 -0.11627,-0.332796 0,-0.27704 0.0496,-0.592617 0.14934,-0.947229 0.0997,-0.365696 0.21038,-0.715031 0.33228,-1.047481 0.1219,-0.34353 0.23307,-0.653651 0.3328,-0.930693 0.0997,-0.27704 0.14986,-0.476517 0.14986,-0.598413 0,-0.144063 -0.0392,-0.266133 -0.11679,-0.365869 -0.0776,-0.09974 -0.1773,-0.177138 -0.2992,-0.232544 -0.11081,-0.06649 -0.23782,-0.110646 -0.38189,-0.132809 -0.13298,-0.03324 -0.26051,-0.05013 -0.38241,-0.05013 -0.0997,-0.13298 -0.23271,-0.260508 -0.39894,-0.382405 -0.14406,-0.09974 -0.33263,-0.188047 -0.56534,-0.265617 -0.232715,-0.08865 -0.515043,-0.133325 -0.847493,-0.133325 h -5.16e-4 c -0.454346,0 -0.908359,0.144408 -1.362708,0.432531 -0.454346,0.288123 -0.864723,0.670191 -1.230416,1.1467 -0.365693,0.465429 -0.664903,0.991906 -0.897619,1.579232 -0.152702,0.404658 -0.252737,0.811702 -0.30024,1.221631 -0.119515,0.170025 -0.246188,0.322669 -0.380856,0.457336 -0.166225,0.188388 -0.360244,0.354617 -0.581876,0.498678 -0.21055,0.144061 -0.426907,0.216008 -0.648539,0.216008 -0.166226,0 -0.299208,-0.05558 -0.398943,-0.166399 -0.08865,-0.121898 -0.132808,-0.276699 -0.132808,-0.465087 0,-0.398938 0.04416,-0.781523 0.132808,-1.147217 0.09973,-0.376776 0.204926,-0.731568 0.315743,-1.064018 0.121897,-0.332449 0.233061,-0.642571 0.332797,-0.930693 0.09973,-0.299203 0.149345,-0.576079 0.149345,-0.830957 0,-0.06649 -0.04416,-0.149861 -0.132809,-0.249597 -0.05954,-0.07442 -0.129242,-0.146066 -0.208773,-0.21549 0.04125,0.0053 0.08377,0.0078 0.127124,0.0078 0.177305,0 0.343533,-0.04415 0.498678,-0.132808 0.166224,-0.09974 0.310116,-0.227261 0.432015,-0.382406 0.132982,-0.166222 0.23272,-0.349332 0.299206,-0.548804 0.07757,-0.210549 0.116272,-0.426388 0.116272,-0.648022 0,-0.27704 -0.08286,-0.49885 -0.24908,-0.665076 -0.155143,-0.166224 -0.354618,-0.24908 -0.598413,-0.24908 -0.188388,0 -0.366041,0.04961 -0.532267,0.149345 -0.166224,0.08865 -0.315571,0.216181 -0.448552,0.382405 -0.121896,0.155143 -0.221634,0.332282 -0.299206,0.531751 -0.07757,0.199469 -0.116272,0.404915 -0.116272,0.615466 0,0.212024 0.04429,0.390636 0.133325,0.535885 -0.122721,-0.05246 -0.234108,-0.07906 -0.334347,-0.07906 -0.09973,0 -0.188561,0.03324 -0.266133,0.09974 -0.07757,0.05541 -0.138091,0.127354 -0.182418,0.216008 -0.09973,0.232714 -0.227263,0.543352 -0.382406,0.931209 -0.14406,0.387858 -0.282498,0.797716 -0.415478,1.229899 -0.132979,0.432183 -0.249598,0.858922 -0.349333,1.280025 -0.05217,0.220286 -0.09087,0.423888 -0.115755,0.610816 -0.06825,0.08182 -0.140238,0.166545 -0.216524,0.253731 -0.144063,0.166226 -0.310289,0.321028 -0.498678,0.465088 -0.188387,0.13298 -0.398773,0.244143 -0.631486,0.332796 -0.232713,0.08865 -0.493225,0.132809 -0.781348,0.132809 -0.177306,0 -0.332624,-0.02233 -0.465604,-0.06666 -0.13298,-0.05541 -0.243629,-0.110991 -0.33228,-0.166398 -0.110819,-0.06649 -0.205097,-0.149345 -0.28267,-0.249081 0.02215,-0.288123 0.06086,-0.576426 0.116272,-0.864546 0.05541,-0.288123 0.127355,-0.559542 0.216008,-0.814421 0.299206,-0.243794 0.615299,-0.553918 0.947746,-0.930692 0.34353,-0.376776 0.675985,-0.781177 0.997355,-1.213363 0.332449,-0.443263 0.642572,-0.903251 0.930692,-1.379761 0.299203,-0.476509 0.559715,-0.930524 0.781348,-1.362707 0.232716,-0.443266 0.415307,-0.848187 0.548287,-1.21388 0.132979,-0.365696 0.199471,-0.664903 0.199471,-0.897619 0,-0.14406 -0.04415,-0.299382 -0.132809,-0.465605 -0.08865,-0.177307 -0.205269,-0.337564 -0.349332,-0.481624 -0.14406,-0.155143 -0.310291,-0.277216 -0.498678,-0.365869 -0.177306,-0.09974 -0.359898,-0.149345 -0.548287,-0.149345 -0.4211,0 -0.847839,0.18805 -1.280025,0.564823 -0.432183,0.376776 -0.847497,0.886887 -1.246436,1.529622 -0.398937,0.631653 -0.776067,1.373969 -1.13068,2.227255 -0.34353,0.842205 -0.642743,1.734384 -0.89762,2.676322 -0.211075,0.780056 -0.383765,1.574929 -0.518831,2.385384 -0.126448,0.135002 -0.258411,0.259524 -0.395325,0.373621 -0.177306,0.14406 -0.382233,0.277043 -0.614949,0.398942 -0.232713,0.110817 -0.493228,0.166398 -0.781348,0.166398 H 84.13905 c -0.03324,-0.01108 -0.07194,-0.0225 -0.116272,-0.03359 0.321367,-0.421103 0.570452,-0.875114 0.747758,-1.362707 0.188387,-0.487592 0.28267,-0.953034 0.28267,-1.396297 0,-0.376776 -0.06649,-0.714687 -0.199471,-1.013892 -0.1219,-0.310287 -0.293581,-0.570798 -0.515214,-0.781348 -0.21055,-0.221633 -0.465608,-0.387861 -0.764811,-0.498677 -0.299203,-0.110817 -0.620753,-0.166398 -0.964282,-0.166398 -0.432183,0 -0.875289,0.09428 -1.329635,0.28267 -0.454346,0.188389 -0.869659,0.465261 -1.246435,0.830957 -0.342265,0.332199 -0.62995,0.737943 -0.86248,1.216463 -0.01316,-0.03975 -0.02736,-0.07979 -0.04238,-0.119373 C 79.006601,42.204785 78.857253,41.883753 78.679947,41.562386 78.50264,41.241019 78.308622,40.919471 78.09807,40.598104 77.88752,40.276737 77.6935,39.955189 77.516194,39.633822 77.338887,39.312455 77.18954,38.98597 77.067642,38.65352 c -0.121898,-0.332448 -0.182934,-0.670361 -0.182934,-1.013892 0,-0.243796 0.04961,-0.476518 0.149345,-0.698149 0.09973,-0.232716 0.238172,-0.432189 0.415478,-0.598413 0.177306,-0.177306 0.388207,-0.31626 0.632003,-0.415995 0.243796,-0.110815 0.509761,-0.165881 0.797884,-0.165881 0.243795,0 0.437816,0.06104 0.581877,0.182934 0.155142,0.110818 0.232544,0.277045 0.232544,0.498678 0,0.265958 -0.0774,0.537379 -0.232544,0.81442 -0.155142,0.265959 -0.310461,0.493225 -0.465605,0.681613 -0.08865,0.110813 -0.149688,0.193667 -0.182935,0.24908 -0.02217,0.04433 -0.03307,0.09446 -0.03307,0.149862 0,0.05541 0.02779,0.110474 0.0832,0.165881 0.05541,0.05541 0.1219,0.0832 0.199471,0.0832 0.14406,0 0.348989,-0.07194 0.614949,-0.216007 0.265959,-0.14406 0.526471,-0.332625 0.781348,-0.565341 0.254878,-0.232713 0.476171,-0.493225 0.664559,-0.781347 0.188388,-0.288123 0.28267,-0.581364 0.28267,-0.880567 0,-0.232716 -0.06649,-0.432189 -0.199471,-0.598413 -0.121897,-0.177304 -0.288126,-0.321714 -0.498678,-0.432532 -0.210551,-0.110817 -0.454181,-0.193673 -0.731221,-0.24908 -0.277042,-0.05541 -0.570799,-0.0832 -0.881083,-0.0832 z m -5.628598,1.48053 a 0.95784998,0.95784998 0 0 1 0.957565,0.958081 0.95784998,0.95784998 0 0 1 -0.957565,0.957564 0.95784998,0.95784998 0 0 1 -0.958081,-0.957564 0.95784998,0.95784998 0 0 1 0.958081,-0.958081 z m 18.019056,0.0987 c 0.232716,0 0.349332,0.110646 0.349332,0.332279 0,0.166223 -0.05558,0.404399 -0.166398,0.714685 -0.09973,0.310287 -0.238172,0.653652 -0.415478,1.030428 -0.166224,0.365693 -0.360244,0.753732 -0.581877,1.163754 -0.210553,0.39894 -0.431846,0.781523 -0.664559,1.147216 -0.232714,0.35461 -0.465951,0.675645 -0.698665,0.963766 -0.221633,0.288125 -0.421106,0.498507 -0.598413,0.631486 0.210553,-0.731386 0.443788,-1.451366 0.698665,-2.160592 0.254876,-0.720306 0.509416,-1.362884 0.764295,-1.928047 0.265957,-0.565165 0.509588,-1.019695 0.731221,-1.363225 0.232716,-0.354613 0.426734,-0.53175 0.581877,-0.53175 z m -8.859408,4.803841 c 0.18839,0 0.343191,0.08286 0.465088,0.24908 0.121899,0.155143 0.182935,0.421111 0.182935,0.797884 0,0.365696 -0.04415,0.78698 -0.132809,1.263489 -0.08865,0.46543 -0.216182,0.908535 -0.382405,1.329635 -0.06649,-0.02216 -0.127528,-0.03307 -0.182935,-0.03307 -0.06649,0 -0.149347,0.02779 -0.24908,0.0832 -0.08865,0.04433 -0.177481,0.104848 -0.266134,0.182418 -0.08865,0.07757 -0.166054,0.166397 -0.232544,0.266133 -0.05541,0.09973 -0.0832,0.194017 -0.0832,0.28267 0,0.144063 0.09428,0.277046 0.28267,0.398943 -0.166223,0.13298 -0.338425,0.199471 -0.515731,0.199471 -0.254877,0 -0.453836,-0.10519 -0.597896,-0.315743 -0.13298,-0.21055 -0.199471,-0.481972 -0.199471,-0.814421 0,-0.565163 0.06052,-1.08073 0.182418,-1.546159 0.13298,-0.476509 0.293751,-0.886369 0.482141,-1.229899 0.199467,-0.354613 0.409853,-0.626034 0.631486,-0.814421 0.221633,-0.19947 0.42708,-0.299206 0.615466,-0.299206 z m 16.904911,0.116272 c 0.166226,0 0.304663,0.06103 0.415479,0.182934 0.121889,0.110816 0.182939,0.287952 0.182939,0.531751 0,0.321366 -0.0834,0.698497 -0.249602,1.13068 -0.155143,0.421103 -0.348644,0.825507 -0.58136,1.213363 -0.232714,0.387857 -0.482314,0.714859 -0.748274,0.980819 -0.254879,0.265959 -0.482146,0.398425 -0.681612,0.398425 -0.32137,0 -0.482142,-0.249088 -0.482142,-0.747758 0,-0.343532 0.06649,-0.73157 0.199472,-1.163753 0.13298,-0.432185 0.29921,-0.831131 0.498677,-1.196827 0.210552,-0.376773 0.443272,-0.692353 0.698149,-0.947229 0.254879,-0.25488 0.504477,-0.382405 0.748274,-0.382405 z m 4.891688,0.05839 a 1.436775,1.436775 0 0 0 -1.43712,1.437122 1.436775,1.436775 0 0 0 1.43712,1.436605 1.436775,1.436775 0 0 0 1.43661,-1.436605 1.436775,1.436775 0 0 0 -1.43661,-1.437122 z m 0,0.479041 a 0.95784998,0.95784998 0 0 1 0.95757,0.958081 0.95784998,0.95784998 0 0 1 -0.95757,0.957564 0.95784998,0.95784998 0 0 1 -0.95808,-0.957564 0.95784998,0.95784998 0 0 1 0.95808,-0.958081 z m -16.660478,4.449341 c 0.199467,0.232711 0.382064,0.487773 0.548287,0.764811 0.13298,0.232713 0.255052,0.509591 0.365869,0.830957 0.121897,0.321366 0.182934,0.659278 0.182934,1.013891 0,0.13298 -0.0109,0.265963 -0.03307,0.398942 -0.02215,0.144063 -0.0554,0.271593 -0.09973,0.382406 -0.04433,0.11082 -0.105365,0.199647 -0.182935,0.266134 -0.06649,0.07757 -0.14986,0.116272 -0.249597,0.116272 -0.144062,0 -0.293407,-0.127526 -0.448551,-0.382406 -0.14406,-0.254876 -0.216008,-0.709408 -0.216008,-1.363224 0,-0.221633 0.0055,-0.45435 0.01654,-0.698149 0.01108,-0.232713 0.02745,-0.448552 0.04961,-0.648022 0.02215,-0.23271 0.0445,-0.459983 0.06666,-0.681612 z" />
    </g>
  </g>
</svg>
