<?xml version="1.0" encoding="UTF-8" standalone="no"?>
<svg
   width="125.41999"
   height="45.279999"
   version="1.1"
   id="svg1"
   xmlns="http://www.w3.org/2000/svg"
   xmlns:svg="http://www.w3.org/2000/svg">
  <defs
     id="defs1" />
  <path
     fill="currentColor"
     stroke="currentColor"
     d="m 14.54,3.1 c 2.81,0 4.32,1.44 4.32,3.24 0,1.22 -1.37,1.8 -1.37,3.67 0,1.37 0.94,2.16 2.38,2.16 1.51,0 2.95,-1.3 2.95,-4.18 0,-4.61 -3.46,-7.49 -8.93,-7.49 -4.8199999,0 -11.5199999,2.88 -11.5199999,10.3 0,5.69 4.97,8.64 8.7099999,9.5 -3.7399999,0.44 -10.57999989,4.97 -10.57999989,12.96 0,8.28 5.89999999,11.45 13.09999989,11.45 6.84,0 10.88,-5.25 12.32,-8.57 0.21,-0.57 0.5,-1.15 0.5,-1.44 0,-0.57 -0.29,-1 -0.79,-1 -0.51,0 -0.79,0.21 -1.08,0.86 C 23.11,37.8 19.36,41.4 14.32,41.4 10.08,41.4 6.2600001,38.52 6.2600001,32.54 6.2600001,25.7 12.24,21.96 16.56,21.1 c 0.57,-0.08 0.93,-0.36 0.93,-1.08 0,-0.58 -0.36,-0.94 -1.01,-1.01 C 10.8,18.43 7.7700001,14.76 7.7700001,10.73 7.7700001,5.83 10.87,3.1 14.54,3.1 Z m 35.5,20.88 c -3.53,0 -6.92,4.17 -8.07,7.48 v -1.8 c 0,-3.88 -1.65,-5.83 -4.75,-5.83 -3.53,0 -6.84,4.25 -7.99,7.63 v -4.68 c 0,-1.58 0.5,-2.23 0.5,-2.73 0,-0.29 -0.21,-0.43 -0.43,-0.43 -2.38,0 -4.75,2.44 -4.75,4.6 v 11.02 c 0,0.22 0,2.95 -0.22,3.74 -0.21,0.8 -0.43,1.16 -0.43,1.44 0,0.29 0.22,0.36 0.43,0.36 0.51,0 1.37,-0.28 2.02,-0.72 1.08,-0.64 2.88,-1.94 2.88,-3.74 v -2.3 c 0,-3.82 3.38,-10.66 6.19,-10.66 1.3,0 1.94,1.08 1.94,3.02 v 8.86 c 0,0.29 0,2.95 -0.21,3.74 -0.22,0.8 -0.51,1.16 -0.51,1.44 0,0.29 0.22,0.36 0.51,0.36 0.43,0 1.29,-0.28 2.01,-0.72 0.94,-0.57 2.81,-1.94 2.81,-3.74 v -2.3 c 0,-3.82 3.39,-10.66 6.19,-10.66 1.52,0 1.88,1.3 1.88,3.17 v 7.99 c 0,4.03 0.93,6.12 4.46,6.12 4.75,0 6.98,-5.54 8.21,-8.5 0.21,-0.57 0.5,-1.22 0.5,-1.51 0,-0.5 -0.29,-0.93 -0.86,-0.93 -0.51,0 -0.72,0.21 -1.01,0.86 -1.66,3.6 -3.24,6.77 -4.9,6.77 -1.15,0 -1.72,-0.94 -1.72,-3.67 v -7.64 c 0,-3.88 -1.44,-6.04 -4.68,-6.04 z m 36.79,0 c -3.53,0 -6.91,4.17 -8.07,7.48 v -1.8 c 0,-3.88 -1.65,-5.83 -4.75,-5.83 -3.53,0 -6.84,4.25 -7.99,7.63 v -4.68 c 0,-1.58 0.5,-2.23 0.5,-2.73 0,-0.29 -0.21,-0.43 -0.43,-0.43 -2.37,0 -4.75,2.44 -4.75,4.6 v 11.02 c 0,0.22 0,2.95 -0.22,3.74 -0.21,0.8 -0.43,1.16 -0.43,1.44 0,0.29 0.22,0.36 0.43,0.36 0.51,0 1.37,-0.28 2.02,-0.72 1.08,-0.64 2.88,-1.94 2.88,-3.74 v -2.3 c 0,-3.82 3.38,-10.66 6.19,-10.66 1.3,0 1.95,1.08 1.95,3.02 v 8.86 c 0,0.29 0,2.95 -0.22,3.74 -0.22,0.8 -0.5,1.16 -0.5,1.44 0,0.29 0.21,0.36 0.5,0.36 0.43,0 1.3,-0.28 2.02,-0.72 0.93,-0.57 2.8,-1.94 2.8,-3.74 v -2.3 c 0,-3.82 3.39,-10.66 6.2,-10.66 1.51,0 1.87,1.3 1.87,3.17 v 7.99 c 0,4.03 0.93,6.12 4.46,6.12 4.75,0 6.99,-5.54 8.21,-8.5 0.22,-0.57 0.5,-1.22 0.5,-1.51 0,-0.5 -0.28,-0.93 -0.86,-0.93 -0.5,0 -0.72,0.21 -1.01,0.86 -1.65,3.6 -3.24,6.77 -4.89,6.77 -1.16,0 -1.73,-0.94 -1.73,-3.67 v -7.64 c 0,-3.88 -1.44,-6.04 -4.68,-6.04 z m 21.02,-0.08 c -4.1,0 -9.72,4.11 -9.72,12.68 0,5.25 2.67,8.06 6.05,8.06 4.03,0 5.98,-3.96 7.06,-6.84 0.07,3.82 0.86,6.84 5.04,6.84 4.68,0 6.91,-5.54 8.13,-8.5 0.22,-0.57 0.51,-1.15 0.51,-1.44 0,-0.57 -0.29,-1 -0.87,-1 -0.5,0 -0.72,0.21 -1.01,0.86 -1.72,3.82 -3.38,7.13 -5.11,7.13 -1.51,0 -1.87,-1.51 -1.87,-7.35 0,-2.88 0.14,-6.55 0.86,-8.85 0.29,-0.79 0.44,-1.15 0.44,-1.44 0,-0.29 -0.15,-0.43 -0.44,-0.43 -0.36,0 -1.08,0.21 -1.65,0.43 -1.01,0.43 -2.09,1.08 -2.45,2.37 -0.86,-1.58 -2.52,-2.52 -4.97,-2.52 z m 0.58,2.24 c 1.87,0 3.02,1.29 3.02,3.09 0,3.67 -2.73,11.81 -5.11,11.81 -1.8,0 -2.66,-1.94 -2.66,-4.9 0,-6.33 2.3,-10 4.75,-10 z"
     id="path1" />
</svg>
