<?xml version="1.0" encoding="UTF-8" standalone="no"?>
<!-- Created with Inkscape (http://www.inkscape.org/) -->

<svg
   width="34.999992mm"
   height="16.458488mm"
   viewBox="0 0 34.999992 16.458488"
   version="1.1"
   id="svg1"
   xmlns="http://www.w3.org/2000/svg"
   xmlns:svg="http://www.w3.org/2000/svg">
  <defs
     id="defs1" />
  <g
     id="layer1"
     transform="translate(-18.788938,-35.032228)">
    <g
       id="g5">
      <path
         d="m 101.47629,137.107 q -1.572287,0 -2.902679,0.60472 -1.330393,0.54425 -2.297952,1.51181 -0.967558,0.90709 -1.51181,2.17701 -0.544251,1.20944 -0.544251,2.53984 0,1.87464 0.665196,3.68881 0.665196,1.81418 1.632755,3.56787 0.967558,1.7537 2.116534,3.5074 1.148976,1.7537 2.116537,3.5074 0.96756,1.7537 1.63275,3.5074 0.6652,1.7537 0.6652,3.56787 0,2.72126 -1.26992,5.01921 -1.26992,2.29795 -3.386457,3.99118 -2.056061,1.69323 -4.716847,2.66079 -2.600313,0.96756 -5.321571,0.96756 -3.870234,0 -6.893854,-1.02804 -3.02362,-1.0885 -5.079682,-2.72125 -2.056061,-1.63276 -3.144564,-3.62835 -1.088504,-1.99559 -1.088504,-3.9307 0,-1.87465 1.390866,-3.56787 1.390865,-1.7537 3.325982,-3.02362 1.995589,-1.26993 4.112123,-1.99559 2.116534,-0.78615 3.567872,-0.78615 1.02803,0 1.02803,1.02804 0,0.4233 -0.302362,0.72566 -0.302362,0.24189 -0.967558,0.72567 -0.725669,0.60473 -1.451338,1.26992 -0.725668,0.60473 -1.330392,1.39087 -0.544252,0.78614 -0.907086,1.81417 -0.362835,0.96756 -0.362835,2.29795 0,1.20945 0.483779,2.47937 0.544252,1.20945 1.451338,2.23748 0.967558,1.02803 2.297951,1.69323 1.330393,0.66519 2.963148,0.66519 3.446927,0 5.563461,-1.99559 2.116534,-1.99559 2.116534,-5.44251 0,-2.23748 -1.390866,-4.65638 -1.330392,-2.41889 -2.963147,-4.95873 -1.572283,-2.60032 -2.963148,-5.32158 -1.330393,-2.78173 -1.330393,-5.6844 0,-2.8422 1.451338,-5.01921 1.451338,-2.23748 3.688816,-3.74929 2.297952,-1.57228 5.079682,-2.35842 2.842203,-0.84662 5.563464,-0.84662 1.69322,0 3.20503,0.30237 1.51181,0.30236 2.66079,0.90708 1.14898,0.60473 1.81417,1.57228 0.72567,0.90709 0.72567,2.17701 0,1.63276 -1.02803,3.20504 -1.02803,1.57228 -2.4189,2.8422 -1.39086,1.26992 -2.8422,2.05606 -1.45134,0.78614 -2.23748,0.78614 -0.4233,0 -0.72567,-0.30236 -0.30236,-0.30236 -0.30236,-0.60472 0,-0.30236 0.12095,-0.54425 0.18141,-0.30237 0.66519,-0.90709 0.84662,-1.02803 1.69323,-2.47937 0.84661,-1.51181 0.84661,-2.96315 0,-1.20944 -0.84661,-1.81417 -0.78614,-0.66519 -2.11653,-0.66519 z m 33.80405,33.38076 q -1.02803,1.51181 -2.60032,2.60031 -1.33039,1.02803 -3.32598,1.81418 -1.93512,0.78614 -4.5959,0.78614 -1.0885,0 -2.35842,-0.18142 -1.45134,1.14898 -3.20504,1.81417 -1.7537,0.60473 -3.68882,0.60473 -1.87464,0 -3.62834,-0.6652 -1.69323,-0.6652 -3.02362,-1.81417 -1.26992,-1.14898 -2.05606,-2.72126 -0.72567,-1.57228 -0.72567,-3.32598 0,-3.80976 1.26992,-6.71244 1.33039,-2.96315 3.38645,-4.95874 2.05606,-1.99559 4.53543,-3.02362 2.47937,-1.02803 4.83779,-1.02803 1.87465,0 3.5074,0.60473 1.63276,0.60472 2.78173,1.81417 1.20945,1.14897 1.87465,2.8422 0.72567,1.63276 0.72567,3.68882 0,2.41889 -1.02803,5.07968 -0.96756,2.66079 -2.72126,4.95874 0.24189,0.0605 0.4233,0.12094 0.24189,0 0.54426,0 1.57228,0 2.8422,-0.60472 1.26992,-0.6652 2.23748,-1.45134 1.0885,-0.90709 2.05606,-2.05606 0.0605,-0.18142 0.30236,-0.42331 0.12095,-0.12094 0.36284,-0.24189 0.24189,-0.18142 0.54425,-0.18142 0.48378,0 0.84661,0.36284 0.42331,0.36283 0.42331,0.84661 0,0.24189 -0.12095,0.48378 -0.0605,0.18142 -0.18141,0.42331 -0.12095,0.24189 -0.24189,0.54425 z m -22.07243,0.42331 q 0,1.81417 0.72567,2.96314 0.78614,1.14898 2.17701,1.14898 0.96755,0 1.87464,-0.72567 -1.02803,-0.66519 -1.02803,-1.45134 0,-0.48378 0.30236,-1.02803 0.36284,-0.54425 0.84661,-0.96756 0.48378,-0.4233 0.96756,-0.66519 0.54425,-0.30236 0.90709,-0.30236 0.30236,0 0.6652,0.12094 0.90708,-2.29795 1.39086,-4.83779 0.48378,-2.60031 0.48378,-4.5959 0,-2.05606 -0.6652,-2.90268 -0.66519,-0.90708 -1.69322,-0.90708 -1.02803,0 -2.23748,1.0885 -1.20945,1.02803 -2.29795,2.96315 -1.02803,1.87464 -1.7537,4.47495 -0.6652,2.53984 -0.6652,5.62394 z m 25.64028,4.41448 q -0.12095,1.20945 -0.24189,2.47937 -0.12095,1.0885 -0.18142,2.35842 -0.0605,1.3304 -0.0605,2.53985 0,3.56787 0.78614,4.95873 0.84661,1.39087 1.63275,1.39087 0.54426,0 0.90709,-0.42331 0.42331,-0.36283 0.6652,-0.96756 0.24189,-0.60472 0.36283,-1.39086 0.12095,-0.72567 0.12095,-1.45134 0,-1.93512 -0.6652,-3.68882 -0.60472,-1.7537 -1.33039,-3.02362 -0.90709,-1.51181 -1.99559,-2.78173 z m 14.81574,-34.8321 q 0,-1.20945 -1.26992,-1.20945 -0.84662,0 -2.11654,1.93512 -1.20945,1.87464 -2.66078,4.95874 -1.39087,3.08409 -2.78173,7.01479 -1.39087,3.87024 -2.53985,7.86142 0.96756,-0.72567 2.17701,-2.29796 1.26992,-1.57228 2.53984,-3.50739 1.26992,-1.99559 2.4189,-4.1726 1.20945,-2.23748 2.11653,-4.23307 0.96756,-2.05606 1.51181,-3.74929 0.60473,-1.69322 0.60473,-2.60031 z m 0.18141,29.99431 q -0.60472,0.84661 -1.51181,1.93512 -0.84661,1.02803 -2.11653,1.93511 -1.20945,0.90709 -2.96315,1.57229 -1.69323,0.60472 -3.99118,0.60472 0.96756,0.84661 1.69323,2.05606 0.6652,1.02803 1.20945,2.53984 0.54425,1.57229 0.54425,3.5074 0,1.14898 -0.42331,2.35843 -0.4233,1.26992 -1.20944,2.29795 -0.78615,1.0885 -1.93512,1.7537 -1.14898,0.66519 -2.60031,0.66519 -1.3304,0 -2.90268,-0.54425 -1.57228,-0.48378 -2.90268,-1.69323 -1.33039,-1.20944 -2.23747,-3.20503 -0.90709,-1.93512 -0.90709,-4.83779 0,-4.89827 0.84661,-10.21984 0.78614,-5.38204 2.17701,-10.5222 1.39087,-5.14015 3.26551,-9.73605 1.93512,-4.65638 4.11212,-8.10331 2.17701,-3.5074 4.53543,-5.56346 2.35843,-2.05606 4.65638,-2.05606 1.02803,0 1.99559,0.54425 1.02803,0.48378 1.81417,1.3304 0.78614,0.78614 1.26992,1.75369 0.48378,0.90709 0.48378,1.69323 0,1.26992 -0.72567,3.26551 -0.72567,1.99559 -1.99559,4.41449 -1.20945,2.35842 -2.8422,4.95873 -1.57228,2.60032 -3.38646,5.01921 -1.7537,2.35843 -3.62834,4.41449 -1.81417,2.05606 -3.44693,3.38645 -0.48378,1.39087 -0.78614,2.96315 -0.30236,1.57228 -0.42331,3.14457 0.42331,0.54425 1.02804,0.90708 0.48377,0.30236 1.20944,0.60473 0.72567,0.24188 1.69323,0.24188 1.57228,0 2.8422,-0.48377 1.26992,-0.48378 2.29795,-1.20945 1.02804,-0.78614 1.81418,-1.69323 0.84661,-0.96756 1.51181,-1.81417 0.0605,-0.18142 0.30236,-0.42331 0.12094,-0.12094 0.36283,-0.24189 0.24189,-0.18142 0.54425,-0.18142 0.48378,0 0.84662,0.36284 0.42331,0.36283 0.42331,0.84661 0,0.24189 -0.12095,0.48378 -0.0605,0.18142 -0.18142,0.42331 -0.12094,0.24189 -0.24189,0.54425 z m 13.66672,-27.99872 q 0,1.20945 -0.42331,2.35842 -0.36283,1.08851 -1.0885,1.99559 -0.6652,0.84662 -1.57228,1.39087 -0.84662,0.48378 -1.81418,0.48378 -1.33039,0 -2.29795,-0.90709 -0.96756,-0.90709 -0.96756,-2.53984 0,-1.14898 0.42331,-2.23748 0.42331,-1.0885 1.0885,-1.93512 0.72567,-0.90708 1.63276,-1.39086 0.90709,-0.54425 1.93512,-0.54425 1.33039,0 2.177,0.90708 0.90709,0.90709 0.90709,2.4189 z m -8.70803,29.08722 q 0,1.02803 0.48378,1.69323 0.54425,0.60472 1.45134,0.60472 1.20945,0 2.35842,-0.78614 1.20945,-0.78614 2.11654,-1.81417 1.0885,-1.0885 1.99559,-2.60031 0.0605,-0.18142 0.30236,-0.42331 0.12094,-0.12094 0.36283,-0.24189 0.24189,-0.18142 0.54425,-0.18142 0.48378,0 0.84662,0.36284 0.4233,0.36283 0.4233,0.84661 0,0.24189 -0.12094,0.48378 -0.0605,0.18142 -0.18142,0.42331 -0.12094,0.24189 -0.24189,0.54425 -1.33039,2.11653 -2.96314,3.74929 -1.39087,1.39086 -3.32599,2.53984 -1.87464,1.14898 -4.11212,1.14898 -3.44693,0 -5.56346,-1.81418 -2.11653,-1.87464 -2.11653,-4.83779 0,-1.63275 0.54425,-3.9307 0.54425,-2.29796 1.26992,-4.65638 0.72567,-2.35842 1.51181,-4.47496 0.84661,-2.11653 1.39086,-3.38645 0.24189,-0.48378 0.6652,-0.78614 0.42331,-0.36284 0.96756,-0.36284 0.66519,0 1.51181,0.42331 0.84661,0.42331 1.57228,0.96756 0.72567,0.54425 1.20945,1.14897 0.48378,0.54426 0.48378,0.90709 0,1.39087 -0.54425,3.02362 -0.54426,1.57228 -1.20945,3.38645 -0.60473,1.81418 -1.14898,3.87024 -0.48378,1.99559 -0.48378,4.17259 z m 39.06519,-1.0885 q -1.33039,2.11653 -2.96314,3.74929 -1.39087,1.39086 -3.32599,2.53984 -1.87464,1.14898 -4.11212,1.14898 -2.53984,0 -4.29354,-1.26992 -1.7537,-1.3304 -2.05606,-3.87024 -1.20945,1.51181 -2.60031,2.60031 -1.20945,0.96756 -2.72126,1.7537 -1.51181,0.78615 -3.26551,0.78615 -1.20945,0 -2.35843,-0.48378 -1.0885,-0.42331 -1.93511,-1.26992 -0.78614,-0.84662 -1.26992,-1.99559 -0.48378,-1.14898 -0.48378,-2.53984 0,-3.26551 1.20945,-6.47055 1.26992,-3.20504 3.26551,-5.74488 1.99558,-2.60031 4.47495,-4.17259 2.47937,-1.57229 4.95874,-1.57229 1.81417,0 3.08409,0.48378 1.26992,0.42331 2.05606,0.96756 0.90709,0.6652 1.45134,1.39087 0.6652,0 1.39087,0.18141 0.78614,0.12095 1.39086,0.48378 0.6652,0.30236 1.08851,0.84662 0.4233,0.54425 0.4233,1.33039 0,0.6652 -0.54425,2.17701 -0.54425,1.51181 -1.20945,3.38645 -0.66519,1.81417 -1.20945,3.80976 -0.54425,1.93512 -0.54425,3.44693 0,0.72567 0.42331,1.20945 0.48378,0.48377 1.26992,0.48377 1.20945,0 2.35842,-0.78614 1.20945,-0.78614 2.11654,-1.81417 1.0885,-1.0885 1.99559,-2.60031 0.0605,-0.18142 0.30236,-0.42331 0.12094,-0.12094 0.36283,-0.24189 0.24189,-0.18142 0.54426,-0.18142 0.48377,0 0.84661,0.36284 0.42331,0.36283 0.42331,0.84661 0,0.24189 -0.12095,0.48378 -0.0605,0.18142 -0.18142,0.42331 -0.12094,0.24189 -0.24189,0.54425 z m -14.02959,-10.70361 q 0,-1.3304 -0.6652,-1.93512 -0.60472,-0.6652 -1.51181,-0.6652 -1.33039,0 -2.72126,1.39087 -1.39086,1.39086 -2.53984,3.44692 -1.0885,1.99559 -1.81417,4.35402 -0.72567,2.35842 -0.72567,4.23307 0,2.72125 1.7537,2.72125 1.0885,0 2.47937,-1.45133 1.45134,-1.45134 2.72126,-3.56788 1.26992,-2.11653 2.11653,-4.41448 0.90709,-2.35842 0.90709,-4.11212 z"
         id="text1"
         style="font-size:60.4724px;font-family:Milkshake;-inkscape-font-specification:Milkshake;white-space:pre;stroke:#000000;stroke-width:2.26772"
         transform="matrix(0.27230137,0,0,0.27230137,-0.54808319,-1.0219092)"
         aria-label="Sofia" />
    </g>
  </g>
</svg>
